<svg xmlns="http://www.w3.org/2000/svg" width="24" height="24" viewBox="0 0 24 24" fill="none" stroke="currentColor" stroke-width="2" stroke-linecap="round" stroke-linejoin="round" class="lucide lucide-heart-eye">
  <!-- Heart -->
  <path d="M20.84 4.61a5.5 5.5 0 0 0-7.78 0L12 5.67l-1.06-1.06a5.5 5.5 0 1 0-7.78 7.78L12 21.23l8.84-8.84a5.5 5.5 0 0 0 0-7.78z"></path>
  <!-- Eye (exact Lucide eye icon centered) -->
  <path d="M4.062 12.348a1 1 0 0 1 0-.696 10.75 10.75 0 0 1 15.876 0 1 1 0 0 1 0 .696 10.75 10.75 0 0 1-15.876 0"></path>
  <circle cx="12" cy="12" r="3"></circle>
</svg>
